<?xml version="1.0" standalone="no"?>
<!DOCTYPE svg PUBLIC "-//W3C//DTD SVG 20010904//EN"
 "http://www.w3.org/TR/2001/REC-SVG-20010904/DTD/svg10.dtd">
<svg version="1.0" xmlns="http://www.w3.org/2000/svg"
 width="1280.000000pt" height="800.000000pt" viewBox="0 0 1280.000000 800.000000"
 preserveAspectRatio="xMidYMid meet">
<metadata>
Created by potrace 1.15, written by Peter Selinger 2001-2017
</metadata>
<g transform="translate(0.000000,800.000000) scale(0.100000,-0.100000)"
fill="#000000" stroke="none">
<path d="M10310 7835 c-234 -8 -830 -25 -1325 -39 -495 -14 -981 -28 -1080
-31 -569 -18 -2095 -52 -2945 -66 -829 -14 -1768 -8 -1880 12 -104 19 -1098
19 -1290 1 -345 -32 -594 -77 -791 -142 -348 -114 -532 -272 -594 -511 -13
-50 -16 -90 -12 -184 8 -183 50 -314 225 -712 87 -197 128 -307 137 -368 l6
-40 -101 -48 c-85 -40 -113 -60 -178 -125 -118 -119 -194 -270 -237 -472 -23
-104 -30 -341 -16 -470 42 -358 200 -670 391 -774 43 -23 70 -30 132 -34 l78
-5 -43 -27 c-213 -136 -255 -422 -107 -737 79 -169 221 -334 335 -390 l53 -26
-116 -65 c-178 -99 -288 -177 -393 -282 -77 -76 -103 -111 -135 -174 -66 -136
-60 -266 21 -391 227 -356 1057 -654 2125 -764 818 -85 1653 -55 2422 85 105
19 202 31 220 28 18 -3 43 -7 56 -10 21 -4 22 -1 22 57 0 33 -5 114 -11 180
-44 459 172 1037 499 1340 235 218 615 332 1051 316 542 -20 998 -231 1221
-564 90 -135 165 -318 210 -516 20 -92 21 -100 6 -131 -9 -19 -16 -48 -16 -65
0 -27 -6 -34 -50 -56 -61 -31 -115 -33 -130 -5 -6 11 -34 32 -63 46 -29 15
-83 46 -120 70 -73 47 -77 49 -77 34 0 -12 98 -78 165 -113 50 -25 103 -72 93
-82 -10 -10 -144 -18 -181 -11 -32 6 -40 14 -69 69 -40 74 -63 86 -184 86 -95
1 -140 -14 -179 -61 -25 -30 -27 -37 -21 -93 15 -140 16 -142 50 -157 52 -22
132 -15 236 21 52 18 101 38 107 43 7 6 15 25 19 44 5 29 10 34 26 28 62 -19
247 10 351 56 38 17 39 17 63 -5 23 -21 25 -34 39 -201 15 -190 27 -244 53
-244 10 0 46 9 80 20 134 42 459 8 570 -60 29 -18 32 -24 32 -68 l0 -48 -67
-17 c-133 -34 -241 -106 -284 -189 -52 -100 5 -178 129 -178 31 0 54 -5 62
-15 40 -49 256 -81 371 -55 30 7 91 18 135 25 195 30 288 119 235 223 -21 42
-26 78 -15 119 6 20 10 16 43 -35 155 -239 550 -417 1071 -483 148 -19 457
-16 560 5 118 25 186 52 231 93 37 33 40 34 75 23 22 -7 68 -11 113 -8 109 6
192 48 296 151 44 44 81 83 81 88 1 5 2 14 3 19 0 6 8 10 17 10 11 0 14 6 9
20 -4 14 -1 22 10 26 11 5 15 14 11 29 -4 16 -1 25 10 29 14 5 14 9 3 22 -10
12 -10 17 -1 23 9 5 8 27 -3 92 -20 113 -76 225 -152 304 -69 72 -150 145
-178 160 -11 6 -19 19 -17 28 2 12 -6 19 -28 24 l-32 6 25 21 c51 43 41 98
-25 132 -25 13 -46 15 -107 9 l-76 -7 19 21 c11 12 61 52 110 88 229 167 318
237 352 276 45 51 84 132 84 172 0 43 -42 124 -84 164 -42 41 -47 81 -16 148
33 74 78 130 232 291 234 246 309 355 338 497 51 248 -145 522 -584 818 l-90
60 40 12 c64 19 105 45 167 104 77 73 115 126 170 236 190 380 208 915 42
1245 -38 75 -106 170 -151 210 l-38 33 81 76 c552 518 456 1081 -245 1439
-230 118 -528 203 -829 236 -201 23 -395 25 -853 11z m-7507 -1101 c2 -3 26
26 52 63 69 97 70 98 27 3 -22 -47 -37 -86 -33 -88 4 -1 65 27 134 64 70 36
127 63 127 61 0 -3 -54 -40 -120 -82 -66 -42 -120 -81 -120 -85 0 -5 42 -12
93 -16 85 -7 89 -9 47 -15 -25 -4 -66 -8 -92 -8 -27 -1 -48 -5 -48 -10 0 -4
56 -46 125 -91 126 -83 178 -127 94 -78 -98 57 -240 130 -244 126 -3 -2 11
-37 30 -78 20 -40 34 -74 32 -76 -2 -2 -26 28 -53 67 -44 65 -49 69 -55 48 -4
-13 -8 -58 -9 -99 -1 -41 -6 -104 -10 -140 l-7 -65 -3 95 c-1 52 -5 127 -9
165 l-6 70 -49 -70 c-78 -111 -82 -105 -16 25 17 34 30 63 28 65 -2 2 -61 -31
-133 -72 -212 -122 -213 -121 -29 7 71 50 130 95 132 100 2 4 -37 12 -85 16
-96 9 -80 21 30 23 34 0 57 5 55 11 -1 5 -59 49 -128 96 -69 48 -120 85 -115
83 6 -2 68 -35 138 -73 71 -37 130 -66 132 -64 3 2 -11 37 -30 78 -20 40 -34
74 -32 76 2 2 26 -29 53 -68 l49 -72 7 44 c3 25 7 86 7 136 2 172 16 169 22
-4 4 -90 9 -165 12 -168z m7646 -711 c1 -51 4 -93 9 -93 4 0 29 32 56 70 27
39 51 70 52 70 2 0 -12 -34 -31 -76 -19 -42 -35 -80 -35 -84 0 -3 57 22 128
58 70 35 123 60 117 55 -5 -6 -59 -43 -120 -84 l-110 -74 45 -7 c25 -3 68 -7
95 -8 73 -3 20 -18 -67 -19 -38 -1 -68 -5 -68 -9 0 -4 63 -50 140 -102 77 -51
140 -95 140 -97 0 -3 -24 9 -52 25 -110 63 -241 132 -250 132 -4 0 2 -21 16
-47 32 -63 59 -131 48 -118 -5 6 -31 42 -58 80 -48 68 -49 69 -52 40 -2 -16
-10 -88 -17 -160 l-13 -130 -1 158 c0 86 -4 157 -9 157 -4 0 -27 -30 -52 -66
-24 -36 -48 -68 -52 -70 -5 -3 8 30 27 72 19 42 33 79 31 81 -4 4 -207 -108
-266 -146 -13 -9 -21 -11 -18 -6 3 6 65 51 137 100 72 50 131 93 131 98 0 4
-19 7 -42 8 -24 0 -65 4 -93 8 -49 7 -48 8 43 15 50 5 92 11 92 15 0 3 -54 42
-121 85 -111 74 -177 126 -98 79 80 -48 231 -125 235 -120 3 3 -11 40 -30 83
-20 42 -35 78 -34 80 2 1 26 -31 53 -72 28 -40 53 -73 56 -74 5 0 17 166 21
299 1 49 2 45 9 -29 4 -47 7 -127 8 -177z m392 -1131 c4 58 6 64 8 28 6 -101
12 -102 65 -12 26 45 50 82 52 82 2 0 -11 -30 -30 -67 -60 -122 -60 -123 28
-74 42 23 76 39 76 36 0 -2 -30 -25 -66 -49 l-66 -44 53 -6 c30 -3 70 -8 89
-9 19 -2 -8 -5 -60 -6 l-95 -2 25 -22 c14 -12 41 -35 60 -51 40 -32 24 -26
-38 17 -24 16 -45 27 -47 25 -2 -1 10 -32 26 -67 37 -82 30 -92 -10 -13 -17
33 -35 63 -40 66 -5 3 -14 -22 -19 -56 l-9 -63 -2 58 c0 31 -5 57 -11 57 -5 0
-10 -3 -10 -7 0 -5 -12 -21 -26 -38 l-26 -30 27 49 c15 27 23 47 19 45 -5 -2
-37 -19 -71 -37 -35 -18 -63 -30 -63 -28 0 2 27 21 60 42 33 22 60 42 60 47 0
4 -37 8 -82 9 l-83 2 85 5 85 6 -53 38 c-28 21 -52 41 -52 44 0 5 68 -34 85
-49 28 -25 22 1 -19 78 -25 47 -46 89 -46 93 0 3 26 -34 58 -82 l57 -89 6 74z
m-566 -951 c-3 -5 -1 -12 5 -16 17 -10 11 -25 -9 -25 -11 0 -23 -4 -26 -10 -4
-6 6 -10 23 -10 16 0 35 -7 42 -15 11 -13 5 -15 -44 -15 -74 0 -72 -17 4 -26
83 -9 86 -24 6 -24 -52 0 -66 -3 -66 -15 0 -12 14 -15 69 -15 39 0 73 -4 76
-10 4 -6 -22 -10 -69 -10 -60 0 -76 -3 -76 -15 0 -11 18 -15 82 -17 59 -2 83
-7 86 -17 4 -12 -10 -13 -82 -7 -73 6 -86 5 -86 -8 0 -12 18 -16 92 -18 66 -2
93 -7 96 -17 3 -10 -14 -12 -92 -10 -72 3 -96 1 -96 -8 0 -9 20 -13 68 -13 37
0 84 -3 105 -6 71 -12 37 -24 -68 -24 -58 0 -105 -4 -105 -9 0 -5 52 -12 115
-16 63 -4 118 -11 121 -16 3 -5 -49 -9 -115 -9 -74 0 -121 -4 -121 -10 0 -14
-10 -12 134 -19 79 -4 131 -10 133 -17 2 -7 -38 -11 -129 -10 -81 1 -134 -3
-136 -9 -1 -6 52 -11 142 -13 119 -2 146 -5 157 -19 13 -15 2 -16 -134 -9
-119 5 -148 4 -145 -6 3 -9 45 -15 154 -19 82 -3 150 -7 152 -7 1 -1 2 -7 2
-13 0 -7 -43 -10 -135 -7 -94 2 -135 0 -135 -8 0 -7 49 -14 143 -18 191 -10
202 -26 17 -26 -189 0 -176 -19 18 -27 102 -4 142 -10 142 -18 0 -10 -33 -11
-136 -7 -114 4 -136 3 -132 -9 4 -11 37 -15 143 -19 104 -4 139 -8 143 -19 4
-11 -19 -12 -132 -6 -122 7 -136 6 -136 -9 0 -14 18 -16 139 -16 118 0 140 -2
145 -16 5 -14 -8 -16 -126 -13 -172 5 -191 -14 -23 -22 66 -4 130 -7 143 -8
12 0 22 -5 22 -11 0 -6 -54 -10 -142 -10 -181 0 -172 -16 15 -26 75 -4 137
-11 137 -15 0 -5 -63 -9 -140 -9 -87 0 -140 -4 -140 -10 0 -5 12 -11 28 -11
184 -9 252 -16 252 -24 0 -6 -50 -9 -136 -6 -113 3 -136 1 -132 -10 4 -11 36
-15 141 -17 116 -2 137 -5 137 -18 0 -13 -18 -15 -141 -8 -119 6 -141 5 -137
-7 4 -11 35 -15 141 -17 118 -2 137 -5 137 -19 0 -14 -16 -15 -132 -12 -83 3
-135 0 -138 -6 -3 -6 37 -11 110 -12 127 -3 160 -8 160 -24 0 -7 -45 -10 -137
-8 -100 2 -138 0 -141 -9 -2 -8 14 -12 55 -12 96 0 223 -12 223 -21 0 -5 -63
-9 -140 -9 -77 0 -140 -4 -140 -9 0 -5 63 -12 140 -16 184 -10 182 -28 -3 -26
-90 1 -137 -2 -137 -9 0 -12 -10 -11 143 -19 177 -8 164 -27 -17 -22 -114 3
-138 1 -134 -10 4 -11 37 -15 141 -17 115 -2 137 -5 137 -18 0 -13 -20 -15
-142 -12 -106 2 -142 0 -145 -9 -4 -10 28 -13 136 -13 123 0 141 -2 141 -16 0
-14 -17 -16 -142 -13 -106 3 -142 1 -145 -8 -4 -10 25 -13 120 -13 127 0 157
-4 157 -22 0 -7 -51 -9 -142 -7 -107 3 -142 1 -145 -8 -4 -10 20 -13 99 -13
115 0 178 -8 178 -22 0 -5 -62 -8 -142 -7 -96 1 -143 -2 -146 -10 -2 -7 20
-11 69 -11 91 0 82 -18 -14 -27 -37 -3 -67 -9 -67 -13 0 -3 -35 -14 -77 -24
-217 -50 -406 -130 -511 -215 -60 -49 -64 -51 -90 -37 -15 7 -57 23 -95 35
-37 11 -76 25 -87 31 -36 19 -21 28 23 15 58 -17 121 -22 127 -10 3 6 -18 13
-49 17 -105 12 -219 73 -287 152 -48 55 -139 244 -160 331 -23 91 -23 284 -1
382 8 39 27 99 40 133 24 59 25 63 12 153 -7 51 -16 149 -20 220 l-7 127 83
-31 c312 -116 301 -112 335 -100 56 20 204 32 325 27 l116 -6 134 155 c73 85
137 155 142 155 4 0 6 -4 2 -9z m391 -1483 c3 -4 -30 -8 -73 -7 -54 1 -70 3
-53 9 31 10 120 8 126 -2z m33 -54 c12 -11 -17 -12 -187 -7 -136 4 -202 3
-202 -4 0 -13 56 -23 135 -24 95 -1 35 -17 -67 -18 -49 -1 -88 -5 -88 -10 0
-11 35 -21 73 -21 16 0 26 -4 22 -10 -3 -5 -28 -10 -56 -10 -36 0 -49 -4 -49
-14 0 -8 10 -17 23 -19 l22 -4 -22 -8 c-13 -4 -23 -10 -23 -14 0 -13 -165
-129 -240 -169 -99 -54 -178 -70 -263 -54 -85 16 -131 15 -202 -3 -132 -34
-246 -119 -280 -209 -17 -45 -17 -118 0 -173 7 -21 4 -23 -28 -23 -44 0 -98
-43 -128 -101 l-19 -38 -38 21 c-61 36 -162 145 -261 281 -50 70 -94 133 -97
140 -2 8 81 41 247 97 138 47 255 88 261 91 6 4 6 21 -2 49 -10 36 -9 50 5 86
15 41 59 84 84 84 23 0 101 -56 101 -72 0 -25 33 -43 134 -77 108 -36 121 -47
77 -62 -21 -7 -29 -15 -23 -21 16 -16 50 1 79 38 55 73 205 160 365 213 37 12
126 37 197 55 126 32 137 33 283 28 110 -3 157 -8 167 -18z m41 -49 c11 -13
-1 -15 -96 -14 -60 1 -100 3 -89 6 11 3 24 9 30 14 16 16 141 11 155 -6z m43
-54 c8 -8 -35 -11 -145 -11 -168 0 -229 7 -206 22 18 13 338 2 351 -11z m-106
-38 c93 -4 144 -10 146 -18 4 -8 -40 -10 -167 -8 -221 4 -323 12 -305 24 17
10 132 11 326 2z m480 -28 c2 -6 -32 -9 -92 -7 -58 2 -93 7 -89 13 7 13 176 7
181 -6z m-303 -36 c5 -5 8 -11 5 -13 -2 -3 -126 -1 -274 2 -149 4 -272 6 -274
5 -22 -15 54 -24 278 -30 206 -6 265 -11 269 -21 3 -11 -41 -12 -254 -7 -219
6 -257 5 -246 -6 10 -11 61 -15 220 -17 224 -3 272 -7 272 -24 0 -8 -62 -9
-220 -4 -140 5 -220 4 -220 -2 0 -18 31 -22 173 -23 168 -1 271 -11 244 -23
-10 -5 -99 -7 -198 -4 -145 4 -179 2 -179 -9 0 -10 21 -13 88 -13 132 0 272
-12 266 -22 -3 -5 -85 -8 -182 -7 -232 2 -245 -16 -17 -26 91 -4 165 -11 165
-16 0 -5 -83 -9 -184 -9 -102 0 -187 -4 -190 -9 -3 -5 76 -12 182 -16 194 -7
212 -9 212 -23 0 -5 -97 -6 -216 -4 -133 3 -219 1 -225 -5 -12 -12 154 -23
337 -23 96 0 124 -3 134 -15 11 -13 -18 -14 -249 -8 -173 4 -261 3 -261 -4 0
-12 150 -23 326 -23 146 0 224 -8 224 -22 0 -7 -103 -8 -289 -3 -186 5 -290 4
-294 -2 -9 -14 97 -23 288 -24 197 -1 327 -11 332 -24 2 -7 -105 -7 -318 -2
-213 6 -324 6 -331 -1 -14 -14 80 -20 402 -28 216 -5 268 -8 280 -21 13 -13 4
-14 -85 -9 -226 13 -623 17 -629 8 -10 -17 37 -21 394 -27 310 -6 377 -12 358
-30 -3 -4 -181 -1 -394 5 l-389 12 -55 36 c-30 21 -102 83 -160 140 -96 93
-108 102 -139 100 -102 -9 -47 -118 172 -343 100 -102 128 -136 115 -139 -33
-8 -18 -26 21 -26 22 0 44 -6 51 -15 11 -13 5 -15 -49 -15 -34 0 -61 -4 -61
-10 0 -6 31 -10 73 -10 49 0 80 -5 93 -15 17 -13 9 -14 -78 -15 -54 0 -98 -4
-98 -9 0 -5 48 -12 108 -16 153 -9 158 -20 10 -23 -204 -4 -146 -32 67 -32 80
0 105 -3 115 -15 12 -14 -4 -15 -148 -9 -147 6 -162 6 -162 -9 0 -15 19 -17
179 -17 154 0 180 -2 192 -17 13 -15 0 -16 -178 -9 -163 6 -193 5 -193 -7 0
-11 39 -15 210 -20 124 -3 217 -10 227 -17 13 -8 -41 -10 -209 -7 -172 2 -228
0 -228 -9 0 -8 67 -14 250 -19 183 -5 254 -11 267 -21 15 -11 -18 -12 -212 -8
-126 3 -245 7 -262 9 -23 3 -33 0 -33 -10 0 -15 71 -18 730 -36 223 -6 407
-13 409 -15 17 -16 -46 -20 -274 -13 -767 20 -860 22 -849 9 9 -8 111 -15 355
-21 671 -19 759 -23 751 -36 -6 -9 -77 -10 -307 -3 -774 22 -791 23 -775 7 12
-12 108 -16 530 -27 283 -6 517 -14 519 -16 25 -23 -185 -23 -856 1 -155 6
-172 5 -167 -9 4 -11 19 -16 48 -16 104 0 941 -23 945 -27 3 -2 0 -8 -5 -13
-10 -10 -161 -7 -857 13 -64 2 -96 -1 -94 -8 5 -13 155 -21 594 -30 296 -7
355 -10 365 -23 12 -13 -9 -14 -187 -9 -543 18 -740 20 -728 7 12 -13 7 -13
616 -30 210 -6 344 -14 355 -20 17 -11 -377 -8 -758 6 -147 6 -163 5 -150 -9
13 -12 94 -17 515 -27 346 -9 512 -16 540 -25 l40 -13 -45 -1 c-45 -1 -663 15
-883 23 -95 3 -116 2 -107 -9 11 -13 91 -17 778 -36 334 -9 447 -18 431 -34
-2 -2 -132 0 -289 5 -651 20 -856 22 -835 8 20 -12 65 -14 838 -34 203 -5 287
-10 284 -18 -4 -12 -160 -11 -706 5 -184 5 -336 7 -338 5 -18 -18 89 -26 500
-36 258 -7 486 -10 509 -7 l40 5 -24 -25 c-12 -14 -40 -34 -60 -44 -36 -18
-52 -19 -370 -9 -440 13 -428 13 -404 -5 15 -12 56 -15 175 -16 86 -1 226 -5
311 -8 267 -11 98 -24 -233 -18 -276 5 -300 7 -437 36 -340 71 -583 183 -741
340 -153 153 -194 323 -126 519 l24 69 -90 43 c-219 106 -312 234 -263 364 28
73 115 149 210 182 85 31 137 36 234 23 155 -21 264 16 444 151 l93 70 275 -6
c151 -3 279 -10 284 -15z m347 -16 c13 -15 7 -16 -86 -10 -55 4 -126 7 -158 7
-36 0 -56 4 -52 10 4 6 63 10 144 10 117 0 141 -3 152 -17z m33 -48 c4 -12 -5
-15 -53 -15 -115 0 -301 13 -301 22 0 4 78 8 174 8 145 0 175 -2 180 -15z
m-35 -41 c103 -11 68 -24 -66 -24 -152 0 -264 10 -257 21 6 10 233 12 323 3z
m75 -64 c7 -7 -47 -10 -165 -10 -184 0 -249 6 -249 23 0 13 400 1 414 -13z
m40 -51 c5 -5 8 -10 5 -12 -2 -2 -113 -2 -246 1 -206 4 -243 7 -243 19 0 13
32 14 238 8 130 -4 241 -11 246 -16z m46 -56 c13 -12 -22 -13 -265 -8 -154 4
-286 8 -292 10 -7 3 -13 9 -13 15 0 18 551 2 570 -17z m-2643 -45 c11 -13 39
-50 62 -83 l42 -60 -33 -4 c-18 -1 -70 2 -116 9 -45 7 -93 9 -106 6 -14 -3
-37 -27 -56 -56 -37 -58 -77 -83 -133 -83 -41 0 -87 20 -87 37 0 16 57 46 86
46 14 0 38 7 54 15 23 12 30 22 30 45 0 17 -4 30 -10 30 -5 0 -10 -9 -10 -19
0 -22 -35 -51 -63 -51 -25 0 -33 27 -13 49 15 17 13 31 -5 31 -13 0 -39 -57
-34 -72 6 -15 -40 -46 -51 -35 -15 15 11 65 55 108 43 41 57 48 162 76 142 39
198 42 226 11z m2601 6 c50 -3 92 -10 92 -15 0 -19 -586 -3 -594 17 -4 11 35
12 202 8 114 -2 249 -7 300 -10z m-1379 -81 c48 -49 128 -117 179 -153 78 -55
89 -66 71 -70 -13 -3 -24 -11 -27 -18 -2 -8 13 -12 55 -12 33 0 67 -6 77 -13
16 -12 6 -13 -68 -9 -75 4 -86 2 -86 -12 0 -14 15 -16 113 -16 73 -1 122 -6
142 -15 28 -13 24 -13 -61 -14 -50 -1 -120 2 -155 6 l-64 6 -88 89 c-147 150
-236 271 -223 304 12 32 50 12 135 -73z m1370 29 c220 -11 189 -28 -41 -24
-257 5 -411 15 -415 27 -3 11 190 9 456 -3z m181 -68 c13 -13 -13 -14 -210 -9
-288 7 -388 14 -396 27 -5 7 85 8 292 3 241 -5 302 -10 314 -21z m24 -45 c5
-5 7 -11 4 -14 -3 -3 -137 -2 -299 2 -218 6 -293 11 -296 20 -4 10 57 12 289
7 161 -4 297 -10 302 -15z m-3781 -20 c44 -12 62 -36 84 -113 21 -75 10 -91
-87 -122 -127 -41 -159 -46 -211 -34 -45 11 -47 13 -53 53 -20 146 -20 146 5
174 13 14 38 32 54 39 36 16 155 18 208 3z m3695 -25 c61 -4 102 -10 102 -16
0 -8 -85 -9 -277 -4 -221 6 -281 10 -293 22 -12 12 11 13 175 9 105 -3 236 -8
293 -11z m335 -22 c17 -18 19 -25 9 -46 -10 -22 -16 -25 -44 -19 -46 8 -66 25
-41 34 20 8 13 12 -39 23 -16 4 -28 10 -28 15 0 28 113 22 143 -7z m-300 -31
c16 0 26 -5 22 -11 -12 -20 -485 -5 -492 15 -2 8 231 6 470 -4z m177 -16 c11
-13 5 -15 -44 -15 -43 0 -56 3 -56 15 0 11 12 15 44 15 26 0 48 -6 56 -15z
m-2222 -108 c26 -20 86 -54 132 -78 47 -23 86 -43 88 -44 3 -3 -14 -41 -22
-52 -1 -1 -31 7 -66 18 -35 11 -119 25 -186 31 l-123 12 6 51 c8 77 21 119 44
144 l21 23 29 -35 c16 -20 51 -51 77 -70z m1315 94 c178 -5 261 -11 269 -19
14 -14 -60 -15 -462 -3 -167 5 -273 12 -285 19 -24 14 83 14 478 3z m-1473 -7
c0 -3 -5 -15 -12 -27 -7 -12 -14 -56 -17 -97 -6 -69 -8 -75 -31 -80 -14 -3
-37 0 -52 7 -26 14 -26 15 -13 52 22 63 43 97 75 125 30 25 50 33 50 20z
m1940 -19 c-27 -15 -78 -19 -129 -9 -60 12 -30 24 62 24 85 -1 90 -2 67 -15z
m295 -5 c-3 -5 -11 -10 -16 -10 -6 0 -7 5 -4 10 3 6 11 10 16 10 6 0 7 -4 4
-10z m195 1 c0 -10 -158 -27 -167 -18 -3 3 -2 10 2 16 8 13 165 15 165 2z
m-771 -30 c63 -3 116 -10 118 -16 2 -7 -74 -8 -224 -4 -126 4 -276 7 -334 8
-76 1 -111 5 -125 16 -17 13 7 14 216 9 129 -4 286 -9 349 -13z m231 -16 c0
-10 -10 -15 -29 -15 -16 0 -34 7 -41 15 -11 13 -7 15 29 15 30 0 41 -4 41 -15z
m202 5 c44 0 67 -4 63 -10 -7 -12 -235 -14 -235 -2 0 19 17 24 59 18 24 -3 75
-6 113 -6z m413 -20 c4 -6 -41 -10 -129 -10 -79 0 -137 4 -141 10 -4 6 41 10
129 10 79 0 137 -4 141 -10z m-701 -30 c5 -5 8 -12 5 -14 -9 -10 -575 13 -599
24 -18 8 59 9 280 5 168 -3 309 -10 314 -15z m51 -10 c3 -5 2 -10 -4 -10 -5 0
-13 5 -16 10 -3 6 -2 10 4 10 5 0 13 -4 16 -10z m240 0 c-28 -12 -163 -12
-170 0 -4 6 29 10 92 9 64 0 91 -3 78 -9z m105 -5 c0 -8 -7 -15 -15 -15 -8 0
-15 7 -15 15 0 8 7 15 15 15 8 0 15 -7 15 -15z m370 -12 c13 -13 -1 -14 -130
-8 -80 4 -148 9 -152 12 -25 14 7 18 129 15 106 -3 141 -7 153 -19z m-325 7
c3 -5 1 -10 -4 -10 -6 0 -11 5 -11 10 0 6 2 10 4 10 3 0 8 -4 11 -10z m-1062
-9 c157 -14 115 -26 -76 -23 -141 3 -185 7 -197 18 -12 12 -1 14 85 13 55 0
140 -4 188 -8z m645 -17 c6 -2 12 -8 12 -14 0 -16 -455 -2 -495 15 -25 11 11
13 220 8 138 -2 256 -6 263 -9z m88 -16 c4 -5 -6 -8 -22 -6 -15 2 -29 8 -31
14 -5 14 44 6 53 -8z m201 0 c-5 -16 -144 -15 -160 1 -8 8 13 11 77 11 66 0
87 -3 83 -12z m97 -3 c4 -12 -3 -15 -29 -15 -33 0 -43 8 -28 23 12 13 51 7 57
-8z m81 -5 c3 -6 -5 -10 -19 -10 -14 0 -28 5 -31 10 -3 6 5 10 19 10 14 0 28
-4 31 -10z m341 -5 c17 -14 6 -16 -126 -13 -89 2 -153 8 -165 15 -16 10 8 12
126 13 116 0 149 -3 165 -15z m-1216 -21 c41 -13 22 -14 -190 -8 -234 5 -270
8 -270 23 0 14 411 0 460 -15z m-1548 -3 c26 -10 27 -11 12 -40 -13 -26 -13
-35 -2 -58 7 -16 24 -32 37 -38 l24 -10 -6 -152 c-3 -83 -9 -159 -15 -168 -5
-9 -51 -34 -103 -54 -100 -39 -178 -86 -204 -123 -8 -13 -15 -37 -15 -55 0
-30 -3 -33 -30 -33 -45 0 -98 26 -111 54 -20 44 -3 94 54 150 59 59 138 100
238 125 l69 16 0 145 0 145 -30 17 c-34 19 -38 42 -14 77 17 24 37 25 96 2z
m1776 2 c-21 -2 -57 -2 -80 0 -24 2 -7 4 37 4 44 0 63 -2 43 -4z m217 -14 c5
-5 -24 -9 -78 -9 -74 0 -87 2 -87 16 0 15 10 16 78 10 42 -4 81 -11 87 -17z
m105 1 c8 -5 12 -11 10 -13 -9 -7 -90 5 -90 14 0 12 61 11 80 -1z m97 4 c-3
-3 -12 -4 -19 -1 -8 3 -5 6 6 6 11 1 17 -2 13 -5z m126 0 c58 -10 44 -24 -24
-24 -54 0 -60 2 -49 15 14 17 19 17 73 9z m-1977 -29 c95 -18 130 -35 126 -60
-12 -89 -13 -182 -3 -232 9 -43 10 -78 3 -131 -10 -69 -9 -76 14 -121 20 -38
23 -53 15 -73 -23 -61 -126 -111 -251 -122 -25 -3 -70 -12 -100 -21 -74 -22
-223 -15 -299 14 -167 63 -123 155 120 247 72 27 99 42 104 58 3 11 9 89 12
173 l6 151 153 -5 c113 -5 154 -3 154 5 0 8 -24 12 -67 12 -116 1 -273 17
-288 30 -20 17 -19 59 3 83 16 18 26 19 121 13 57 -4 137 -13 177 -21z m2145
9 c12 -15 9 -16 -41 -9 -74 10 -88 25 -23 25 34 0 55 -5 64 -16z m333 -5 c17
-16 -247 -9 -275 8 -21 12 -7 13 121 7 80 -3 149 -10 154 -15z m-936 -15 c87
-5 132 -11 132 -18 0 -7 -29 -10 -92 -8 -51 1 -243 6 -427 11 -237 7 -336 13
-345 21 -8 10 56 11 294 6 168 -3 365 -9 438 -12z m477 -25 c5 -5 -50 -9 -152
-9 -140 0 -162 2 -167 17 -6 15 7 15 151 9 87 -4 162 -11 168 -17z m340 -10
c6 -6 -47 -9 -149 -7 -126 2 -160 6 -164 17 -4 12 19 13 149 7 85 -4 158 -12
164 -17z m175 -4 c11 -13 4 -15 -53 -15 -45 0 -68 4 -77 15 -11 13 -4 15 53
15 45 0 68 -4 77 -15z m-1062 -11 c185 -6 222 -9 222 -21 0 -12 -12 -14 -67
-9 -38 3 -217 8 -400 12 -267 5 -336 9 -350 21 -19 15 -45 15 595 -3z m494
-14 c47 0 58 -3 58 -16 0 -13 -7 -15 -31 -10 -17 3 -85 6 -150 6 -104 0 -119
2 -119 16 0 15 11 16 92 10 50 -3 117 -6 150 -6z m366 -10 c28 0 52 -4 52 -10
0 -6 -62 -10 -165 -10 -147 0 -165 2 -165 17 0 14 12 15 113 10 61 -4 136 -7
165 -7z m240 -17 c3 -10 -17 -13 -77 -13 -66 0 -81 3 -81 15 0 13 13 15 77 13
50 -2 78 -7 81 -15z m-1175 -9 c273 -5 317 -8 317 -21 0 -14 -21 -15 -157 -9
-87 3 -260 9 -385 12 -184 5 -230 9 -240 22 -11 13 -3 14 67 8 44 -3 223 -8
398 -12z m627 -30 c0 -12 -21 -13 -132 -8 -140 6 -162 9 -155 21 3 5 68 7 146
5 115 -2 141 -6 141 -18z m349 -1 c18 -15 -36 -20 -166 -15 -119 4 -153 8
-153 18 0 11 29 13 158 7 86 -3 159 -7 161 -10z m164 0 c37 -3 67 -10 67 -14
0 -5 -45 -9 -100 -9 -55 0 -100 4 -100 8 0 24 20 26 133 15z m-820 -29 c40
-12 12 -24 -55 -24 -265 2 -651 19 -662 30 -8 9 71 10 344 5 195 -4 363 -9
373 -11z m307 -19 c0 -17 -61 -20 -193 -9 -122 11 -89 24 58 24 113 0 135 -2
135 -15z m193 5 c115 0 129 -2 117 -14 -22 -21 -280 -10 -280 12 0 9 6 12 16
8 9 -3 75 -6 147 -6z m405 -16 c7 -2 11 -7 9 -11 -3 -5 -64 -7 -137 -5 -114 3
-130 5 -119 18 9 11 32 13 123 8 61 -3 117 -8 124 -10z m-1169 -14 c186 -6
277 -12 285 -20 17 -19 -642 -3 -669 16 -24 17 -11 17 384 4z m559 -27 c3 -10
-20 -13 -91 -13 -103 0 -157 7 -157 22 0 14 243 5 248 -9z m252 -9 c0 -15 -10
-16 -77 -10 -42 3 -91 6 -110 6 -18 0 -33 5 -33 10 0 6 43 10 110 10 95 0 110
-2 110 -16z m263 6 c102 0 117 -2 117 -16 0 -15 -9 -16 -61 -10 -34 3 -112 6
-173 6 -102 1 -109 2 -91 16 13 10 32 14 55 10 19 -3 88 -6 153 -6z m-945 -26
c104 -4 162 -10 160 -16 -7 -20 -594 -3 -602 17 -4 13 61 12 442 -1z m375 -10
c73 -13 35 -24 -78 -24 -96 0 -115 3 -115 15 0 12 15 15 78 15 42 0 94 -3 115
-6z m465 -11 c189 -5 232 -9 232 -20 0 -12 -34 -13 -212 -8 -298 8 -418 15
-418 26 0 11 85 11 398 2z m-500 -39 c89 -11 58 -24 -58 -24 -101 0 -122 5
-103 23 8 9 92 9 161 1z m604 -14 c109 0 128 -2 128 -15 0 -14 -32 -15 -282
-10 -310 6 -368 11 -368 27 0 8 57 9 197 5 108 -4 254 -7 325 -7z m-322 -45
c342 -6 450 -13 450 -28 0 -10 -119 -8 -707 10 -177 5 -210 8 -206 20 5 12 22
13 87 9 44 -3 214 -8 376 -11z m-75 -50 c379 -7 515 -14 515 -28 0 -10 -315
-6 -758 9 -156 6 -180 9 -170 21 8 10 25 13 57 9 25 -3 186 -8 356 -11z m313
-60 c100 -4 182 -11 182 -16 0 -5 -57 -9 -126 -9 -154 0 -818 20 -822 25 -17
16 44 19 295 13 158 -4 370 -10 471 -13z m-10 -52 c135 -4 170 -9 160 -18 -22
-20 -908 7 -908 27 0 11 331 7 748 -9z m-85 -49 c119 -4 217 -11 217 -15 0
-12 3 -12 -205 -9 -335 4 -569 15 -590 28 -21 14 -29 14 578 -4z m-10 -51
c152 -5 186 -9 175 -19 -10 -10 -67 -11 -268 -4 -140 4 -266 13 -280 18 -31
13 98 15 373 5z m21 -53 l111 -1 -24 -19 c-12 -11 -28 -17 -35 -12 -6 4 -78 9
-160 12 -116 4 -150 8 -154 19 -4 12 9 13 73 8 43 -4 128 -7 189 -7z m-74 -50
c89 -1 102 -3 83 -13 -16 -9 -61 -12 -140 -10 -102 2 -118 4 -122 19 -3 14 3
16 35 11 22 -4 86 -7 144 -7z"/>
<path d="M9192 2934 c-29 -20 -28 -33 9 -96 42 -71 58 -88 85 -88 29 0 50 30
63 89 9 43 8 46 -24 78 -26 26 -41 33 -72 33 -21 0 -49 -7 -61 -16z m109 -24
c28 -23 19 -24 -52 -9 -36 8 -47 14 -38 20 24 15 66 10 90 -11z m-47 -75 c19
-62 30 -72 54 -54 16 12 16 12 0 -5 -23 -26 -43 -15 -78 41 -34 54 -38 73 -12
73 13 0 23 -15 36 -55z m86 23 c0 -17 -20 -47 -20 -31 0 6 -3 18 -6 27 -4 11
-1 16 10 16 9 0 16 -6 16 -12z"/>
<path d="M9678 2939 c-47 -14 -88 -51 -88 -82 0 -30 60 -100 99 -117 46 -19
91 2 156 72 31 33 55 67 53 76 -2 8 -15 24 -31 35 -32 24 -129 32 -189 16z
m165 -26 l32 -18 -115 -5 c-63 -3 -121 -9 -129 -14 -10 -6 -12 -5 -9 5 7 21
86 48 141 48 28 1 61 -6 80 -16z m26 -49 c9 -8 -107 -114 -124 -114 -18 0 -18
-1 -4 38 9 25 7 38 -5 63 l-16 32 72 -7 c39 -3 74 -9 77 -12z m-206 -40 c3
-20 14 -46 24 -57 18 -19 17 -20 -3 -9 -24 13 -74 68 -74 82 0 11 32 30 41 24
3 -2 9 -20 12 -40z"/>
<path d="M9410 2729 c-9 -16 -8 -24 4 -38 34 -37 11 -119 -36 -128 -29 -6 -39
-23 -13 -23 27 0 65 23 71 44 6 19 7 19 28 -6 30 -36 58 -48 115 -48 71 0 64
17 -9 22 -54 4 -64 8 -90 39 -35 40 -40 84 -10 92 22 6 27 36 8 55 -19 19 -56
14 -68 -9z"/>
<path d="M10590 529 c0 -17 63 -21 458 -32 326 -8 425 -8 434 1 9 9 2 12 -32
13 -25 0 -228 6 -453 12 -224 7 -407 9 -407 6z"/>
<path d="M7537 1674 c-3 -4 3 -19 14 -34 32 -42 36 -105 10 -140 -25 -35 -26
-40 -6 -40 38 0 59 114 31 169 -17 32 -40 53 -49 45z"/>
<path d="M6596 2652 c-3 -5 1 -15 9 -22 19 -15 42 -91 51 -162 5 -47 3 -63
-14 -90 -30 -49 -52 -134 -53 -202 l0 -61 -22 56 c-21 55 -108 209 -146 258
l-19 25 -35 -55 c-19 -30 -56 -97 -82 -149 -65 -127 -66 -164 -7 -280 23 -47
42 -99 42 -117 0 -17 -16 -64 -35 -104 -31 -66 -35 -82 -34 -154 0 -44 4 -89
8 -100 9 -23 -11 -90 -36 -117 -38 -42 -118 -9 -195 81 -19 22 -40 41 -46 41
-16 0 -16 -1 12 -51 45 -81 58 -159 66 -389 4 -118 12 -226 17 -240 12 -28 39
-54 68 -64 19 -7 19 -8 -5 -26 -14 -11 -74 -40 -135 -66 -60 -25 -135 -58
-165 -72 -62 -30 -150 -110 -150 -135 0 -26 35 -55 75 -63 68 -13 256 49 493
162 115 55 134 61 139 46 44 -123 86 -206 114 -226 35 -24 159 7 200 50 43 46
27 107 -58 210 -29 37 -39 55 -27 50 39 -15 187 -56 203 -56 42 -1 44 -11 22
-136 -27 -153 -28 -238 -2 -256 10 -7 21 -24 26 -36 4 -14 22 -30 41 -38 29
-12 39 -12 67 0 41 17 73 56 82 99 4 18 18 55 31 82 31 64 54 186 54 282 l0
76 104 -6 c126 -8 200 -23 245 -48 18 -11 36 -17 39 -15 3 3 -19 17 -49 30
-58 26 -173 46 -269 46 -32 0 -62 5 -65 10 -8 14 162 13 262 -1 87 -12 137
-30 170 -61 13 -12 25 -19 29 -16 12 12 -67 60 -123 75 -32 8 -121 18 -198 22
-135 6 -140 7 -143 28 -4 27 -21 27 198 8 190 -16 269 -29 314 -52 27 -14 28
-17 23 -65 -8 -68 -28 -95 -79 -109 -33 -9 -56 -9 -98 0 -156 34 -192 40 -267
46 -69 6 -83 5 -83 -8 0 -11 21 -15 98 -20 53 -3 142 -17 198 -31 85 -21 107
-23 145 -14 70 17 101 55 112 135 12 96 -35 115 -363 142 l-195 16 -3 43 c-3
37 -9 47 -44 72 -55 40 -101 40 -156 0 -31 -22 -42 -37 -42 -56 0 -26 -1 -26
-52 -20 -28 4 -56 8 -61 9 -5 1 -11 -3 -14 -10 -2 -7 13 -14 39 -18 71 -11 78
-15 78 -42 0 -25 -2 -26 -47 -20 -27 3 -64 9 -83 13 -19 4 -32 4 -29 0 3 -3
37 -12 75 -19 59 -10 69 -15 72 -35 4 -27 13 -26 -128 -2 -118 20 -147 24
-139 15 4 -4 242 -45 262 -45 4 0 7 -12 7 -26 0 -26 -1 -27 -47 -21 -27 3
-103 24 -170 45 -68 22 -123 36 -123 30 0 -5 29 -42 64 -84 133 -155 128 -212
-21 -245 -48 -11 -55 -10 -74 7 -26 24 -48 67 -84 167 -15 42 -32 77 -37 77
-4 0 -58 -25 -118 -55 -287 -144 -510 -209 -550 -160 -35 42 55 112 246 190
126 51 180 81 213 117 28 30 26 38 -10 38 -43 0 -66 15 -78 52 -6 18 -13 119
-16 223 -6 171 -10 220 -31 320 l-7 30 24 -21 c30 -27 83 -54 104 -54 38 0 73
30 95 82 20 47 21 58 11 101 -20 87 -14 136 25 217 51 105 51 143 -3 247 -65
124 -58 168 58 364 l42 70 32 -48 c62 -93 90 -148 125 -247 48 -136 65 -139
57 -10 -6 111 4 176 39 246 28 55 31 117 10 196 -7 29 -10 55 -6 57 14 9 107
-25 125 -45 15 -17 19 -39 21 -108 2 -56 10 -110 24 -152 26 -80 61 -152 77
-157 13 -5 37 17 66 57 17 24 17 22 11 -95 -3 -66 -13 -149 -21 -184 -8 -35
-15 -85 -15 -110 -1 -56 79 -314 96 -308 28 9 96 243 96 332 l0 59 38 -37 c57
-56 95 -126 188 -348 95 -228 124 -320 124 -394 -1 -118 -84 -203 -240 -245
-22 -6 -40 -16 -40 -21 0 -29 167 34 227 85 51 43 78 109 76 191 -1 79 -33
179 -125 400 -95 226 -151 323 -211 369 -57 43 -60 40 -62 -54 -2 -81 -24
-177 -59 -261 l-14 -33 -36 116 c-20 64 -36 127 -36 141 0 14 9 69 20 122 22
106 29 345 10 345 -6 0 -26 -22 -46 -50 -20 -27 -38 -50 -40 -50 -2 0 -13 18
-23 39 -35 68 -61 181 -61 264 0 74 -2 81 -29 106 -29 27 -90 51 -130 51 -12
0 -32 7 -45 16 -14 8 -27 11 -30 6z m498 -1743 l35 -30 0 -139 c0 -175 -18
-295 -56 -385 -17 -39 -33 -83 -37 -98 -16 -70 -99 -103 -131 -53 -9 14 -15
33 -13 43 2 14 -2 17 -19 15 -21 -3 -23 1 -23 40 1 62 47 317 60 334 7 7 10
23 7 33 -7 29 13 204 27 220 18 23 69 51 93 51 12 0 38 -14 57 -31z"/>
<path d="M6971 874 c-1 -7 -19 -112 -41 -235 -23 -122 -43 -250 -45 -283 l-4
-61 10 60 c5 33 28 160 50 283 22 122 38 228 36 235 -4 8 -6 8 -6 1z"/>
<path d="M7092 755 c-3 -113 -27 -262 -57 -351 -14 -42 -24 -79 -21 -81 2 -3
18 37 34 89 35 108 55 253 50 353 l-4 70 -2 -80z"/>
<path d="M7026 779 c-3 -13 -17 -118 -31 -234 -14 -116 -28 -226 -31 -245 -3
-19 -2 -32 2 -27 8 8 75 519 69 526 -2 2 -6 -7 -9 -20z"/>
<path d="M6716 2448 c-3 -7 -7 -50 -10 -95 -7 -110 -42 -278 -69 -333 -14 -29
-40 -57 -72 -79 -28 -20 -42 -26 -32 -15 39 46 9 112 -79 176 l-45 32 7 114
c8 139 -1 143 -60 26 -66 -131 -53 -218 51 -334 36 -40 50 -49 67 -44 18 5 16
1 -10 -27 -49 -52 -62 -88 -80 -211 -9 -62 -20 -121 -25 -130 -12 -23 -11 -48
1 -48 6 0 13 8 16 18 20 58 67 145 105 192 l44 55 5 -94 c6 -106 22 -130 40
-59 23 93 44 130 118 213 156 175 152 168 152 265 0 101 -26 219 -71 319 -31
69 -45 85 -53 59z m57 -136 c47 -141 59 -269 31 -327 -8 -18 -57 -78 -108
-133 -54 -58 -103 -122 -118 -154 l-26 -53 6 73 c7 104 -15 97 -113 -33 l-38
-50 7 60 c10 93 40 143 114 191 101 66 127 96 151 177 26 88 51 227 51 285 0
23 4 42 9 42 4 0 20 -35 34 -78z m-381 -102 l-4 -80 71 -68 c39 -37 71 -75 71
-84 0 -18 -45 -58 -66 -58 -15 0 -82 86 -108 137 -23 47 -20 119 9 181 13 28
25 52 27 52 2 0 2 -36 0 -80z"/>
<path d="M6832 1858 c-93 -123 -171 -270 -190 -361 -20 -95 18 -147 105 -147
53 0 81 17 120 74 45 66 43 89 -14 142 -47 42 -48 45 -47 99 1 42 11 75 43
141 22 47 41 90 41 95 0 21 -20 6 -58 -43z m-42 -132 c-13 -36 -13 -102 2
-129 6 -12 29 -38 50 -57 36 -31 39 -38 29 -61 -5 -15 -24 -43 -41 -63 -29
-33 -37 -36 -84 -36 -72 0 -91 21 -83 91 7 53 35 122 93 227 36 64 53 78 34
28z"/>
<path d="M7150 1801 c0 -17 9 -88 20 -158 26 -167 37 -277 30 -298 -5 -15 -7
-15 -22 2 -8 10 -21 28 -27 41 -17 32 -34 23 -38 -19 -2 -19 -8 -67 -13 -107
-13 -99 -13 -206 2 -254 14 -47 59 -88 98 -88 44 0 86 43 132 138 67 134 62
177 -50 452 -31 74 -68 175 -82 225 -28 92 -50 121 -50 66z m107 -293 c107
-265 114 -317 58 -433 -40 -84 -95 -139 -128 -130 -63 19 -84 107 -67 274 7
64 15 120 18 125 2 4 15 -5 28 -20 19 -24 26 -27 41 -18 25 15 27 75 5 221 -9
67 -16 120 -13 118 2 -3 28 -64 58 -137z"/>
<path d="M6447 1578 c-55 -148 -48 -457 14 -622 41 -110 113 -186 177 -186 13
0 37 13 53 29 23 23 29 38 29 71 0 48 -6 62 -67 144 -56 76 -104 171 -131 258
-25 79 -45 253 -36 309 9 55 -18 53 -39 -3z m48 -306 c24 -84 87 -208 145
-284 30 -39 54 -82 57 -103 13 -82 -63 -114 -130 -55 -42 36 -93 145 -114 242
-17 83 -23 325 -9 403 l9 50 13 -98 c7 -53 20 -123 29 -155z"/>
<path d="M6967 1554 c-8 -16 -25 -62 -37 -102 -17 -54 -35 -86 -73 -129 -59
-67 -77 -107 -77 -165 0 -122 120 -212 193 -144 51 47 97 172 97 262 0 49 -62
278 -80 298 -5 4 -15 -5 -23 -20z m79 -259 c12 -107 -73 -285 -136 -285 -32 0
-86 59 -99 108 -16 59 0 111 54 172 47 52 77 106 89 152 3 15 11 40 18 55 10
27 12 24 40 -62 15 -49 31 -112 34 -140z"/>
<path d="M6251 1153 c-35 -134 -41 -167 -41 -219 0 -62 22 -114 57 -132 33
-17 119 -24 162 -12 33 9 41 15 41 34 0 13 -10 31 -22 42 -11 10 -54 88 -94
172 -40 83 -78 152 -83 152 -6 0 -15 -17 -20 -37z m89 -145 c32 -67 70 -135
85 -149 15 -15 24 -32 20 -38 -8 -15 -127 -14 -159 0 -30 14 -56 65 -56 109 0
39 40 213 47 206 3 -3 31 -60 63 -128z"/>
<path d="M6430 747 c0 -10 199 -307 206 -307 7 0 6 2 -99 160 -92 139 -107
159 -107 147z"/>
<path d="M6390 733 c1 -11 159 -310 160 -300 0 11 -149 307 -155 307 -3 0 -5
-3 -5 -7z"/>
<path d="M6100 649 c-74 -33 -177 -79 -228 -101 -51 -22 -91 -42 -89 -45 5 -5
447 185 462 198 19 18 -12 6 -145 -52z"/>
<path d="M6038 551 c-120 -53 -221 -100 -225 -105 -9 -9 -5 -8 262 109 110 47
202 88 204 91 17 16 -53 -11 -241 -95z"/>
</g>
</svg>
